<?xml version="1.0" encoding="utf-8"?>
<!-- Generator: Adobe Illustrator 24.3.0, SVG Export Plug-In . SVG Version: 6.00 Build 0)  -->
<svg version="1.1" id="Layer_1" xmlns="http://www.w3.org/2000/svg" xmlns:xlink="http://www.w3.org/1999/xlink" x="0px" y="0px"
	 viewBox="0 0 64 64" enable-background="new 0 0 64 64" xml:space="preserve">
<path d="M3.2,55l8.2-2.1l-3.6,8.7l1.8,0.8l4.1-10.1L15,52l7.9,2l8.5,7.7c0.2,0.2,0.4,0.3,0.7,0.3s0.5-0.1,0.7-0.3l8.5-7.7l7.9-2
	l1.1,0.3l4.1,10.1l1.8-0.8l-3.6-8.7l8.2,2.1c0.4,0.1,0.8-0.1,1.1-0.4c0.2-0.4,0.2-0.8,0-1.2l-7.5-10c-2.7-3.6-6.8-5.9-11.1-6.3
	l3.2-1.2c0.2-0.1,0.3-0.2,0.4-0.3l6-7c0.2-0.3,0.3-0.7,0.2-1l-7-19c-0.1-0.2-0.3-0.5-0.5-0.6l-13-6c-0.3-0.1-0.6-0.1-0.8,0l-13,6
	c-0.2,0.1-0.4,0.3-0.5,0.6l-7,19c-0.1,0.3-0.1,0.7,0.2,1l6,7c0.1,0.1,0.3,0.2,0.4,0.3l3.2,1.2c-4.4,0.5-8.5,2.7-11.1,6.3l-7.5,10
	c-0.3,0.3-0.3,0.8,0,1.2C2.4,54.9,2.8,55.1,3.2,55z M32,59.6L26.9,55c0.5,0,0.9-0.2,1.1-0.7L32,42.2l4.1,12.2
	c0.1,0.4,0.5,0.7,0.9,0.7c0,0,0.1,0,0.1,0L32,59.6z M29.5,38L22,27.7v-6.3l10-4.3l10,4.3v6.3L34.5,38H29.5z M49.2,50
	c-0.2,0-0.3,0-0.5,0l-11.1,2.8l-0.4-1.2L49,48l8.4,2.8l1.1,1.5L49.2,50z M41.5,39c4.4,0,8.6,2.1,11.2,5.6l2.6,3.4l-6-2
	c-0.2-0.1-0.4-0.1-0.6,0l-12.1,3.7L33.4,40H35c0.1,0,0.2,0,0.3-0.1l3.1-1.1L41.5,39z M13.1,27.8l6.7-18.1L32,4.1l12.2,5.6l6.7,18.1
	l-5.4,6.4l-7.7,2.8l6.1-8.4c0.1-0.2,0.2-0.4,0.2-0.6v-5.8l1.6,0.7l0.8-1.8l-14-6c-0.3-0.1-0.5-0.1-0.8,0l-14,6l0.8,1.8l1.6-0.7V28
	c0,0.2,0.1,0.4,0.2,0.6l6.1,8.4l-7.7-2.8L13.1,27.8z M11.3,44.6c2.6-3.5,6.8-5.6,11.2-5.6l3.2-0.1l2.9,1.1c0.1,0,0.2,0.1,0.3,0.1v0
	h1.6l-3.3,9.8L15.3,46c-0.2-0.1-0.4-0.1-0.6,0l-6,2L11.3,44.6z M6.6,50.9L15,48l11.7,3.6l-0.4,1.2L15.2,50c-0.2,0-0.3,0-0.5,0
	l-9.3,2.3L6.6,50.9z"/>
<path d="M35.7,32.7l1-1l-1.4-1.4L34.6,31H28v2h7C35.3,33,35.5,32.9,35.7,32.7z"/>
<path d="M36.8,24c0.1,0,0.1,0,0.2,0c0.1,0,0.2,0,0.3-0.1l3-1l-0.6-1.9L36.9,22L32.2,21c-0.1,0-0.3,0-0.4,0L27.1,22l-2.7-0.9
	l-0.6,1.9l3,1c0.2,0.1,0.3,0.1,0.5,0l4.8-1L36.8,24z"/>
<rect x="31" y="26" width="2" height="3"/>
</svg>
