<svg xmlns="http://www.w3.org/2000/svg" viewBox="0 0 1573.02 1444.99"><defs><style>.cls-1{fill:#414042;}</style></defs><g id="Calque_2" data-name="Calque 2"><g id="Layer_1" data-name="Layer 1"><path class="cls-1" d="M1180.71,1028.39,1162.27,786l22.13-141.48-181.93,57.64,132.75-65.5V607.86c0-204.36-189.3-275.11-189.3-275.11L870.61,508.3l95-393L790.39,0,615.19,115.29l95,393L634.86,332.75s-189.3,70.75-189.3,275.11v28.83l132.76,65.5L396.39,644.55,418.51,786l-18.44,242.36L440.64,938l-43,213.54S428.35,1283.85,629.94,1445l41.8-482.1-172.1-95.64-8.91-113.64L759,832.21l-30.43,198.47,61.8,59,61.8-59L821.77,832.21l268.28-78.6-8.91,113.64L909,962.89l41.8,482.1c201.59-161.14,232.33-293.45,232.33-293.45l-43-213.54Z"/><path class="cls-1" d="M33,270.76A91.27,91.27,0,0,0,117.48,288L295,441.21l-20.32,24.44c-6.9,8-14,16.51-21,25.24l-.07.09h0c-38.5,48-58.37,80.77-50.16,111.39l0-.08A51.43,51.43,0,1,0,252.35,543c13.5-2.95,28.37.42,42.79,12.4a51.4,51.4,0,0,1,9.33,10.23c-2.28-43.72,4.63-57.13,30.37-88.34l72.09,68a323.91,323.91,0,0,1,9.64-39l-53.06-50.07,41.15,2.89,22.39,18.61A319.61,319.61,0,0,1,457.4,422l-47.64-34.78c26-31,42.84-49,86.26-54.75a51.6,51.6,0,0,1-11.76-7.29c-14.42-12-20.45-26-20-39.8a51.41,51.41,0,1,0,49.34-58.87l.06,0c-37.37-2.93-83.18,50.11-126.32,103.71l-20.55,24.71L182.18,210.21A91.35,91.35,0,1,0,33,270.76Z"/><path class="cls-1" d="M1018.43,310.69a51.36,51.36,0,0,0,90.35-25.35c.43,13.8-5.6,27.81-20,39.8a51.17,51.17,0,0,1-11.76,7.29c43.42,5.76,60.28,23.73,86.27,54.75l-42.5,31A321.35,321.35,0,0,1,1151.71,473l16.65-13.84,41.16-2.89-47,44.38a325.35,325.35,0,0,1,10.16,38.55l65.54-61.84c25.74,31.21,32.65,44.62,30.37,88.34a51.4,51.4,0,0,1,9.33-10.23c14.42-12,29.29-15.35,42.79-12.4a51.42,51.42,0,1,0,48.85,59.26l0,.08c8.22-30.62-11.66-63.4-50.16-111.39h0l-.07-.09c-7-8.73-14.09-17.2-21-25.24L1278,441.21,1455.55,288a91.35,91.35,0,1,0-64.71-77.82L1206.25,354.85l-20.55-24.71c-43.14-53.6-89-106.64-126.32-103.71l.06,0a51.37,51.37,0,0,0-41,84.22Z"/><path class="cls-1" d="M385.08,1234.09l-138.84,131L49.69,1388.94,355.93,1134.4l14.7-73A44.23,44.23,0,0,1,356,1025l3.91-51.38L79.14,1178.57,0,1430.24l261.89-31.79,141.36-133.37C396.29,1254,390.27,1243.66,385.08,1234.09Z"/><path class="cls-1" d="M1493.88,1178.57l-272.5-198.92,3.45,45.38a44.23,44.23,0,0,1-14.68,36.4l16.27,80.72,296.91,246.79-196.55-23.86-133.71-126.15c-5.3,9.54-11.42,19.82-18.43,30.74l136.49,128.78L1573,1430.24Z"/></g></g></svg>